<?xml version="1.0"?>
<svg xmlns="http://www.w3.org/2000/svg" xmlns:xlink="http://www.w3.org/1999/xlink" xmlns:svgjs="http://svgjs.com/svgjs" version="1.1" width="512" height="512" x="0" y="0" viewBox="0 0 512 512" style="enable-background:new 0 0 512 512" xml:space="preserve" class=""><g><g xmlns="http://www.w3.org/2000/svg" id="Outline"><path d="M117.641,264.781A56.014,56.014,0,0,0,72,319.844V464a32.032,32.032,0,0,0,32,32h48a8.293,8.293,0,0,0,1.7-.18l86.02-18.73L358.75,495.9a7.355,7.355,0,0,0,1.25.1h48a32.032,32.032,0,0,0,32-32V319.844a56.028,56.028,0,0,0-45.648-55.071L312,249.359V216.918A79.833,79.833,0,0,0,336,160v-.008a32,32,0,1,0,0-64V88a64.626,64.626,0,0,0-2.66-18.127A7.9,7.9,0,0,0,336,64a48.052,48.052,0,0,0-48-48H254.625a120.9,120.9,0,0,0-12.4,1.219l.01.047a63.178,63.178,0,0,0-28.89,14.362A33.428,33.428,0,0,0,176,64.984V95.992a32,32,0,0,0,0,64V160a79.819,79.819,0,0,0,24,56.918v32.441ZM256,240a79.671,79.671,0,0,0,40-10.807v21.044L256,263.57l-40-13.333V229.189A79.644,79.644,0,0,0,256,240Zm56.242,89.938,6.961,27.874-25.94,28.824-15.278.948,31.878-122.349,20.4,3.827,18.617,45-30.453,6.094a7.994,7.994,0,0,0-6.188,9.782ZM385.891,376H424v23.483l-75.6-4.737ZM182.877,400.445l21.747,1.356-3.251,43.552L177.227,440.1Zm15.881-76.726a8,8,0,0,0-5.188-3.563l-30.453-6.094,18.617-45,20.4-3.827,31.877,122.343-15.292-.958L192.8,357.812l6.961-27.874A8,8,0,0,0,198.758,323.719Zm30.026-19.695L232,301.451v14.917ZM248,377.625V288.65l8-6.4,8,6.4v88.975l-2.842,11-10.315,0Zm32-76.174,3.216,2.573L280,316.368Zm7.633-14.389-15.149-12.127,20.052-6.676Zm-63.266,0-4.9-18.8,20.052,6.676Zm-103.781-6.554,42.382-7.938-18.359,44.368a8,8,0,0,0,5.821,10.906L182.2,334.2l-5.961,23.859a7.983,7.983,0,0,0,1.813,7.29l17.89,19.877-17.82-1.112L160,375.055V352H144v15.055l-12.422-6.211A8,8,0,0,0,128,360H88V319.844A40,40,0,0,1,120.586,280.508ZM88,376h38.109l41.155,20.577-5.9,41.251-40.234-5.75A7.846,7.846,0,0,0,120,432H88V376Zm63.141,104H104a16.021,16.021,0,0,1-16-16V448h31.43l80.741,13.457-.148,1.981a7.969,7.969,0,0,0,1.717,5.542ZM424,464a16.021,16.021,0,0,1-16,16H360.625L216.492,457.242l4.093-54.447L424,415.516Zm0-144.156V360H384a8,8,0,0,0-3.578.844L368,367.055V352H352v23.055l-18.124,9.061-17.815,1.106,17.884-19.87a7.983,7.983,0,0,0,1.813-7.29L329.8,334.2l31.773-6.359a8,8,0,0,0,5.821-10.906L349.03,272.567l42.376,7.933A40.013,40.013,0,0,1,424,319.844ZM317.315,72A48.227,48.227,0,0,1,320,88v7.273A193.343,193.343,0,0,1,307.88,72ZM352,127.992a16.021,16.021,0,0,1-16,16v-32A16.021,16.021,0,0,1,352,127.992ZM299.312,56l12.855-12.854c.053.062.1.131.151.193l-9.177,9.434,9.234-9.362A31.817,31.817,0,0,1,318.984,56ZM298.8,33.891,276.688,56H256.65l19.2-24H288A31.817,31.817,0,0,1,298.8,33.891ZM255.35,32l-19.2,24H224V43.477A46.966,46.966,0,0,1,254.616,32h.734ZM192,64.984a17.787,17.787,0,0,1,16-17.679V62.367a313.581,313.581,0,0,1-16,31.766Zm-32,63.008a16.077,16.077,0,0,1,16-15.961v31.961A16.021,16.021,0,0,1,160,127.992ZM192,160V122.794C205.5,105.713,216.724,82.14,221.245,72H290.4A203.6,203.6,0,0,0,320,122.686V160a64,64,0,0,1-128,0Z" fill="#ffc900" data-original="#000000" style="" class=""/><path d="M220,128a12,12,0,1,0-12-12A12.013,12.013,0,0,0,220,128Z" fill="#ffc900" data-original="#000000" style="" class=""/><path d="M292,128a12,12,0,1,0-12-12A12.013,12.013,0,0,0,292,128Z" fill="#ffc900" data-original="#000000" style="" class=""/><path d="M232,176h14.891c13.906,0,27.093-3.227,37.14-9.094l-8.062-13.812c-7.524,4.39-18.125,6.906-29.078,6.906H232Z" fill="#ffc900" data-original="#000000" style="" class=""/><rect x="240" y="432" width="16" height="16" fill="#ffc900" data-original="#000000" style="" class=""/><rect x="272" y="432" width="16" height="16" fill="#ffc900" data-original="#000000" style="" class=""/></g></g></svg>
